<svg version="1.1" viewBox="0.0 0.0 719.5564304461942 235.72965879265092" fill="none" stroke="none" stroke-linecap="square" stroke-miterlimit="10" xmlns:xlink="http://www.w3.org/1999/xlink" xmlns="http://www.w3.org/2000/svg"><clipPath id="p.0"><path d="m0 0l719.55646 0l0 235.72966l-719.55646 0l0 -235.72966z" clip-rule="nonzero"/></clipPath><g clip-path="url(#p.0)"><path fill="#000000" fill-opacity="0.0" d="m0 0l719.55646 0l0 235.72966l-719.55646 0z" fill-rule="evenodd"/><path fill="#000000" fill-opacity="0.0" d="m12.099737 16.855738l0 0c0 -2.6150694 2.1199331 -4.7350025 4.7350025 -4.7350025l146.84497 0c1.2557983 0 2.4601593 0.49886513 3.3481445 1.3868504c0.8879852 0.8879852 1.3868561 2.092351 1.3868561 3.3481522l0 18.939444c0 2.6150703 -2.119934 4.7350006 -4.7350006 4.7350006l-146.84497 0c-2.6150694 0 -4.7350025 -2.1199303 -4.7350025 -4.7350006z" fill-rule="evenodd"/><path stroke="#000000" stroke-width="1.0" stroke-linejoin="round" stroke-linecap="butt" d="m12.099737 16.855738l0 0c0 -2.6150694 2.1199331 -4.7350025 4.7350025 -4.7350025l146.84497 0c1.2557983 0 2.4601593 0.49886513 3.3481445 1.3868504c0.8879852 0.8879852 1.3868561 2.092351 1.3868561 3.3481522l0 18.939444c0 2.6150703 -2.119934 4.7350006 -4.7350006 4.7350006l-146.84497 0c-2.6150694 0 -4.7350025 -2.1199303 -4.7350025 -4.7350006z" fill-rule="evenodd"/><path fill="#000000" d="m27.299072 31.776709l0.234375 1.4531231q-0.6875 0.140625 -1.234375 0.140625q-0.890625 0 -1.390625 -0.28125q-0.484375 -0.28125 -0.6875 -0.734375q-0.203125 -0.4687481 -0.203125 -1.9374981l0 -5.578125l-1.203125 0l0 -1.265625l1.203125 0l0 -2.390625l1.625 -0.984375l0 3.375l1.65625 0l0 1.265625l-1.65625 0l0 5.671875q0 0.6875 0.078125 0.890625q0.09375 0.203125 0.28125 0.328125q0.203125 0.109375 0.578125 0.109375q0.265625 0 0.71875 -0.0625zm7.323929 1.4687481l-1.640625 0l0 -10.453123q-0.59375 0.5625 -1.5625 1.140625q-0.953125 0.5625 -1.71875 0.84375l0 -1.59375q1.375 -0.640625 2.40625 -1.5625q1.03125 -0.921875 1.453125 -1.78125l1.0625 0l0 13.406248z" fill-rule="nonzero"/><path fill="#000000" fill-opacity="0.0" d="m12.099737 61.27831l0 0c0 -2.6150703 2.1199331 -4.7350006 4.7350025 -4.7350006l146.84497 0c1.2557983 0 2.4601593 0.49886322 3.3481445 1.3868484c0.8879852 0.8879852 1.3868561 2.0923538 1.3868561 3.3481522l0 18.939442c0 2.6150742 -2.119934 4.7350082 -4.7350006 4.7350082l-146.84497 0c-2.6150694 0 -4.7350025 -2.119934 -4.7350025 -4.7350082z" fill-rule="evenodd"/><path stroke="#000000" stroke-width="1.0" stroke-linejoin="round" stroke-linecap="butt" d="m12.099737 61.27831l0 0c0 -2.6150703 2.1199331 -4.7350006 4.7350025 -4.7350006l146.84497 0c1.2557983 0 2.4601593 0.49886322 3.3481445 1.3868484c0.8879852 0.8879852 1.3868561 2.0923538 1.3868561 3.3481522l0 18.939442c0 2.6150742 -2.119934 4.7350082 -4.7350006 4.7350082l-146.84497 0c-2.6150694 0 -4.7350025 -2.119934 -4.7350025 -4.7350082z" fill-rule="evenodd"/><path fill="#000000" d="m27.299072 76.19928l0.234375 1.453125q-0.6875 0.140625 -1.234375 0.140625q-0.890625 0 -1.390625 -0.28125q-0.484375 -0.28125 -0.6875 -0.734375q-0.203125 -0.46875 -0.203125 -1.9375l0 -5.578125l-1.203125 0l0 -1.265625l1.203125 0l0 -2.390625l1.625 -0.984375l0 3.375l1.65625 0l0 1.265625l-1.65625 0l0 5.671875q0 0.6875 0.078125 0.890625q0.09375 0.203125 0.28125 0.328125q0.203125 0.109375 0.578125 0.109375q0.265625 0 0.71875 -0.0625zm9.761429 -0.109375l0 1.578125l-8.828125 0q-0.015625 -0.59375 0.1875 -1.140625q0.34375 -0.90625 1.078125 -1.78125q0.75 -0.875 2.15625 -2.015625q2.171875 -1.78125 2.9375 -2.828125q0.765625 -1.046875 0.765625 -1.96875q0 -0.984375 -0.703125 -1.640625q-0.6875 -0.671875 -1.8125 -0.671875q-1.1875 0 -1.90625 0.71875q-0.703125 0.703125 -0.703125 1.953125l-1.6875 -0.171875q0.171875 -1.890625 1.296875 -2.875q1.140625 -0.984375 3.03125 -0.984375q1.921875 0 3.046875 1.0625q1.125 1.0625 1.125 2.640625q0 0.796875 -0.328125 1.578125q-0.328125 0.78125 -1.09375 1.640625q-0.75 0.84375 -2.53125 2.34375q-1.46875 1.234375 -1.890625 1.6875q-0.421875 0.4375 -0.6875 0.875l6.546875 0z" fill-rule="nonzero"/><path fill="#000000" fill-opacity="0.0" d="m12.099737 105.70088l0 0c0 -2.6150665 2.1199331 -4.7350006 4.7350025 -4.7350006l146.84497 0c1.2557983 0 2.4601593 0.49886322 3.3481445 1.3868484c0.8879852 0.8879852 1.3868561 2.0923538 1.3868561 3.3481522l0 18.939445c0 2.6150665 -2.119934 4.7350082 -4.7350006 4.7350082l-146.84497 0c-2.6150694 0 -4.7350025 -2.1199417 -4.7350025 -4.7350082z" fill-rule="evenodd"/><path stroke="#000000" stroke-width="1.0" stroke-linejoin="round" stroke-linecap="butt" d="m12.099737 105.70088l0 0c0 -2.6150665 2.1199331 -4.7350006 4.7350025 -4.7350006l146.84497 0c1.2557983 0 2.4601593 0.49886322 3.3481445 1.3868484c0.8879852 0.8879852 1.3868561 2.0923538 1.3868561 3.3481522l0 18.939445c0 2.6150665 -2.119934 4.7350082 -4.7350006 4.7350082l-146.84497 0c-2.6150694 0 -4.7350025 -2.1199417 -4.7350025 -4.7350082z" fill-rule="evenodd"/><path fill="#000000" d="m27.299072 120.62185l0.234375 1.453125q-0.6875 0.140625 -1.234375 0.140625q-0.890625 0 -1.390625 -0.28125q-0.484375 -0.28125 -0.6875 -0.734375q-0.203125 -0.46875 -0.203125 -1.9375l0 -5.578125l-1.203125 0l0 -1.265625l1.203125 0l0 -2.390625l1.625 -0.984375l0 3.375l1.65625 0l0 1.265625l-1.65625 0l0 5.671875q0 0.6875 0.078125 0.890625q0.09375 0.203125 0.28125 0.328125q0.203125 0.109375 0.578125 0.109375q0.265625 0 0.71875 -0.0625zm1.1520538 -2.0625l1.640625 -0.21875q0.28125 1.40625 0.953125 2.015625q0.6875 0.609375 1.65625 0.609375q1.15625 0 1.953125 -0.796875q0.796875 -0.796875 0.796875 -1.984375q0 -1.125 -0.734375 -1.859375q-0.734375 -0.734375 -1.875 -0.734375q-0.46875 0 -1.15625 0.171875l0.1875 -1.4375q0.15625 0.015625 0.265625 0.015625q1.046875 0 1.875 -0.546875q0.84375 -0.546875 0.84375 -1.671875q0 -0.90625 -0.609375 -1.5q-0.609375 -0.59375 -1.578125 -0.59375q-0.953125 0 -1.59375 0.609375q-0.640625 0.59375 -0.8125 1.796875l-1.640625 -0.296875q0.296875 -1.640625 1.359375 -2.546875q1.0625 -0.90625 2.65625 -0.90625q1.09375 0 2.0 0.46875q0.921875 0.46875 1.40625 1.28125q0.5 0.8125 0.5 1.71875q0 0.859375 -0.46875 1.578125q-0.46875 0.703125 -1.375 1.125q1.1875 0.28125 1.84375 1.140625q0.65625 0.859375 0.65625 2.15625q0 1.734375 -1.28125 2.953125q-1.265625 1.21875 -3.21875 1.21875q-1.765625 0 -2.921875 -1.046875q-1.15625 -1.046875 -1.328125 -2.71875z" fill-rule="nonzero"/><path fill="#000000" fill-opacity="0.0" d="m12.099737 194.54602l0 0c0 -2.6150665 2.1199331 -4.7350006 4.7350025 -4.7350006l146.84497 0c1.2557983 0 2.4601593 0.49887085 3.3481445 1.3868561c0.8879852 0.8879852 1.3868561 2.0923462 1.3868561 3.3481445l0 18.939453c0 2.6150665 -2.119934 4.7350006 -4.7350006 4.7350006l-146.84497 0c-2.6150694 0 -4.7350025 -2.119934 -4.7350025 -4.7350006z" fill-rule="evenodd"/><path stroke="#000000" stroke-width="1.0" stroke-linejoin="round" stroke-linecap="butt" d="m12.099737 194.54602l0 0c0 -2.6150665 2.1199331 -4.7350006 4.7350025 -4.7350006l146.84497 0c1.2557983 0 2.4601593 0.49887085 3.3481445 1.3868561c0.8879852 0.8879852 1.3868561 2.0923462 1.3868561 3.3481445l0 18.939453c0 2.6150665 -2.119934 4.7350006 -4.7350006 4.7350006l-146.84497 0c-2.6150694 0 -4.7350025 -2.119934 -4.7350025 -4.7350006z" fill-rule="evenodd"/><path fill="#000000" d="m27.299072 209.467l0.234375 1.453125q-0.6875 0.140625 -1.234375 0.140625q-0.890625 0 -1.390625 -0.28125q-0.484375 -0.28125 -0.6875 -0.734375q-0.203125 -0.46875 -0.203125 -1.9375l0 -5.578125l-1.203125 0l0 -1.265625l1.203125 0l0 -2.390625l1.625 -0.984375l0 3.375l1.65625 0l0 1.265625l-1.65625 0l0 5.671875q0 0.6875 0.078125 0.890625q0.09375 0.203125 0.28125 0.328125q0.203125 0.109375 0.578125 0.109375q0.265625 0 0.71875 -0.0625zm1.6051788 1.46875l0 -9.671875l1.46875 0l0 1.375q1.0625 -1.59375 3.078125 -1.59375q0.875 0 1.609375 0.3125q0.734375 0.3125 1.09375 0.828125q0.375 0.5 0.515625 1.203125q0.09375 0.453125 0.09375 1.59375l0 5.953125l-1.640625 0l0 -5.890625q0 -1.0 -0.203125 -1.484375q-0.1875 -0.5 -0.671875 -0.796875q-0.484375 -0.296875 -1.140625 -0.296875q-1.046875 0 -1.8125 0.671875q-0.75 0.65625 -0.75 2.515625l0 5.28125l-1.640625 0z" fill-rule="nonzero"/><path fill="#000000" fill-opacity="0.0" d="m108.25722 138.28609l0 42.61418l-36.0 0l0 -42.61418z" fill-rule="evenodd"/><path fill="#000000" d="m83.33722 153.50572l1.875 0l0 1.875l-1.875 0l0 -1.875zm0 5.183304l1.875 0l0 1.875l-1.875 0l0 -1.875zm0 5.183304l1.875 0l0 1.875l-1.875 0l0 -1.875z" fill-rule="nonzero"/><path fill="#000000" fill-opacity="0.0" d="m277.96588 16.855738l0 0c0 -2.6150694 2.119934 -4.7350025 4.735016 -4.7350025l146.84494 0c1.2557983 0 2.4601746 0.49886513 3.3481445 1.3868504c0.8880005 0.8879852 1.3868713 2.092351 1.3868713 3.3481522l0 18.939444c0 2.6150703 -2.119934 4.7350006 -4.735016 4.7350006l-146.84494 0c-2.6150818 0 -4.735016 -2.1199303 -4.735016 -4.7350006z" fill-rule="evenodd"/><path stroke="#000000" stroke-width="1.0" stroke-linejoin="round" stroke-linecap="butt" d="m277.96588 16.855738l0 0c0 -2.6150694 2.119934 -4.7350025 4.735016 -4.7350025l146.84494 0c1.2557983 0 2.4601746 0.49886513 3.3481445 1.3868504c0.8880005 0.8879852 1.3868713 2.092351 1.3868713 3.3481522l0 18.939444c0 2.6150703 -2.119934 4.7350006 -4.735016 4.7350006l-146.84494 0c-2.6150818 0 -4.735016 -2.1199303 -4.735016 -4.7350006z" fill-rule="evenodd"/><path fill="#000000" d="m289.57147 33.245457l0 -9.671873l1.46875 0l0 1.46875q0.5625 -1.03125 1.03125 -1.359375q0.484375 -0.328125 1.0625 -0.328125q0.828125 0 1.6875 0.53125l-0.5625 1.515625q-0.609375 -0.359375 -1.203125 -0.359375q-0.546875 0 -0.96875 0.328125q-0.421875 0.328125 -0.609375 0.890625q-0.28125 0.875 -0.28125 1.921875l0 5.062498l-1.625 0zm11.947052 0l-1.640625 0l0 -10.453123q-0.59375 0.5625 -1.5625 1.140625q-0.953125 0.5625 -1.71875 0.84375l0 -1.59375q1.375 -0.640625 2.40625 -1.5625q1.03125 -0.921875 1.453125 -1.78125l1.0625 0l0 13.406248z" fill-rule="nonzero"/><path fill="#000000" fill-opacity="0.0" d="m277.96588 61.27831l0 0c0 -2.6150703 2.119934 -4.7350006 4.735016 -4.7350006l146.84494 0c1.2557983 0 2.4601746 0.49886322 3.3481445 1.3868484c0.8880005 0.8879852 1.3868713 2.0923538 1.3868713 3.3481522l0 18.939442c0 2.6150742 -2.119934 4.7350082 -4.735016 4.7350082l-146.84494 0c-2.6150818 0 -4.735016 -2.119934 -4.735016 -4.7350082z" fill-rule="evenodd"/><path stroke="#000000" stroke-width="1.0" stroke-linejoin="round" stroke-linecap="butt" d="m277.96588 61.27831l0 0c0 -2.6150703 2.119934 -4.7350006 4.735016 -4.7350006l146.84494 0c1.2557983 0 2.4601746 0.49886322 3.3481445 1.3868484c0.8880005 0.8879852 1.3868713 2.0923538 1.3868713 3.3481522l0 18.939442c0 2.6150742 -2.119934 4.7350082 -4.735016 4.7350082l-146.84494 0c-2.6150818 0 -4.735016 -2.119934 -4.735016 -4.7350082z" fill-rule="evenodd"/><path fill="#000000" d="m289.57147 77.66803l0 -9.671875l1.46875 0l0 1.46875q0.5625 -1.03125 1.03125 -1.359375q0.484375 -0.328125 1.0625 -0.328125q0.828125 0 1.6875 0.53125l-0.5625 1.515625q-0.609375 -0.359375 -1.203125 -0.359375q-0.546875 0 -0.96875 0.328125q-0.421875 0.328125 -0.609375 0.890625q-0.28125 0.875 -0.28125 1.921875l0 5.0625l-1.625 0zm14.384552 -1.578125l0 1.578125l-8.828125 0q-0.015625 -0.59375 0.1875 -1.140625q0.34375 -0.90625 1.078125 -1.78125q0.75 -0.875 2.15625 -2.015625q2.171875 -1.78125 2.9375 -2.828125q0.765625 -1.046875 0.765625 -1.96875q0 -0.984375 -0.703125 -1.640625q-0.6875 -0.671875 -1.8125 -0.671875q-1.1875 0 -1.90625 0.71875q-0.703125 0.703125 -0.703125 1.953125l-1.6875 -0.171875q0.171875 -1.890625 1.296875 -2.875q1.140625 -0.984375 3.03125 -0.984375q1.921875 0 3.046875 1.0625q1.125 1.0625 1.125 2.640625q0 0.796875 -0.328125 1.578125q-0.328125 0.78125 -1.09375 1.640625q-0.75 0.84375 -2.53125 2.34375q-1.46875 1.234375 -1.890625 1.6875q-0.421875 0.4375 -0.6875 0.875l6.546875 0z" fill-rule="nonzero"/><path fill="#000000" fill-opacity="0.0" d="m277.96588 105.70088l0 0c0 -2.6150665 2.119934 -4.7350006 4.735016 -4.7350006l146.84494 0c1.2557983 0 2.4601746 0.49886322 3.3481445 1.3868484c0.8880005 0.8879852 1.3868713 2.0923538 1.3868713 3.3481522l0 18.939445c0 2.6150665 -2.119934 4.7350082 -4.735016 4.7350082l-146.84494 0c-2.6150818 0 -4.735016 -2.1199417 -4.735016 -4.7350082z" fill-rule="evenodd"/><path stroke="#000000" stroke-width="1.0" stroke-linejoin="round" stroke-linecap="butt" d="m277.96588 105.70088l0 0c0 -2.6150665 2.119934 -4.7350006 4.735016 -4.7350006l146.84494 0c1.2557983 0 2.4601746 0.49886322 3.3481445 1.3868484c0.8880005 0.8879852 1.3868713 2.0923538 1.3868713 3.3481522l0 18.939445c0 2.6150665 -2.119934 4.7350082 -4.735016 4.7350082l-146.84494 0c-2.6150818 0 -4.735016 -2.1199417 -4.735016 -4.7350082z" fill-rule="evenodd"/><path fill="#000000" d="m289.57147 122.0906l0 -9.671875l1.46875 0l0 1.46875q0.5625 -1.03125 1.03125 -1.359375q0.484375 -0.328125 1.0625 -0.328125q0.828125 0 1.6875 0.53125l-0.5625 1.515625q-0.609375 -0.359375 -1.203125 -0.359375q-0.546875 0 -0.96875 0.328125q-0.421875 0.328125 -0.609375 0.890625q-0.28125 0.875 -0.28125 1.921875l0 5.0625l-1.625 0zm5.775177 -3.53125l1.640625 -0.21875q0.28125 1.40625 0.953125 2.015625q0.6875 0.609375 1.65625 0.609375q1.15625 0 1.953125 -0.796875q0.796875 -0.796875 0.796875 -1.984375q0 -1.125 -0.734375 -1.859375q-0.734375 -0.734375 -1.875 -0.734375q-0.46875 0 -1.15625 0.171875l0.1875 -1.4375q0.15625 0.015625 0.265625 0.015625q1.046875 0 1.875 -0.546875q0.84375 -0.546875 0.84375 -1.671875q0 -0.90625 -0.609375 -1.5q-0.609375 -0.59375 -1.578125 -0.59375q-0.953125 0 -1.59375 0.609375q-0.640625 0.59375 -0.8125 1.796875l-1.640625 -0.296875q0.296875 -1.640625 1.359375 -2.546875q1.0625 -0.90625 2.65625 -0.90625q1.09375 0 2.0 0.46875q0.921875 0.46875 1.40625 1.28125q0.5 0.8125 0.5 1.71875q0 0.859375 -0.46875 1.578125q-0.46875 0.703125 -1.375 1.125q1.1875 0.28125 1.84375 1.140625q0.65625 0.859375 0.65625 2.15625q0 1.734375 -1.28125 2.953125q-1.265625 1.21875 -3.21875 1.21875q-1.765625 0 -2.921875 -1.046875q-1.15625 -1.046875 -1.328125 -2.71875z" fill-rule="nonzero"/><path fill="#000000" fill-opacity="0.0" d="m277.96588 194.54602l0 0c0 -2.6150665 2.119934 -4.7350006 4.735016 -4.7350006l146.84494 0c1.2557983 0 2.4601746 0.49887085 3.3481445 1.3868561c0.8880005 0.8879852 1.3868713 2.0923462 1.3868713 3.3481445l0 18.939453c0 2.6150665 -2.119934 4.7350006 -4.735016 4.7350006l-146.84494 0c-2.6150818 0 -4.735016 -2.119934 -4.735016 -4.7350006z" fill-rule="evenodd"/><path stroke="#000000" stroke-width="1.0" stroke-linejoin="round" stroke-linecap="butt" d="m277.96588 194.54602l0 0c0 -2.6150665 2.119934 -4.7350006 4.735016 -4.7350006l146.84494 0c1.2557983 0 2.4601746 0.49887085 3.3481445 1.3868561c0.8880005 0.8879852 1.3868713 2.0923462 1.3868713 3.3481445l0 18.939453c0 2.6150665 -2.119934 4.7350006 -4.735016 4.7350006l-146.84494 0c-2.6150818 0 -4.735016 -2.119934 -4.735016 -4.7350006z" fill-rule="evenodd"/><path fill="#000000" d="m289.57147 210.93575l0 -9.671875l1.46875 0l0 1.46875q0.5625 -1.03125 1.03125 -1.359375q0.484375 -0.328125 1.0625 -0.328125q0.828125 0 1.6875 0.53125l-0.5625 1.515625q-0.609375 -0.359375 -1.203125 -0.359375q-0.546875 0 -0.96875 0.328125q-0.421875 0.328125 -0.609375 0.890625q-0.28125 0.875 -0.28125 1.921875l0 5.0625l-1.625 0zm6.228302 0l0 -9.671875l1.46875 0l0 1.359375q0.453125 -0.71875 1.203125 -1.140625q0.765625 -0.4375 1.71875 -0.4375q1.078125 0 1.765625 0.453125q0.6875 0.4375 0.96875 1.234375q1.15625 -1.6875 2.984375 -1.6875q1.453125 0 2.21875 0.796875q0.78125 0.796875 0.78125 2.453125l0 6.640625l-1.640625 0l0 -6.09375q0 -0.984375 -0.15625 -1.40625q-0.15625 -0.4375 -0.578125 -0.703125q-0.421875 -0.265625 -0.984375 -0.265625q-1.015625 0 -1.6875 0.6875q-0.671875 0.671875 -0.671875 2.15625l0 5.625l-1.640625 0l0 -6.28125q0 -1.09375 -0.40625 -1.640625q-0.40625 -0.546875 -1.3125 -0.546875q-0.6875 0 -1.28125 0.359375q-0.59375 0.359375 -0.859375 1.0625q-0.25 0.703125 -0.25 2.03125l0 5.015625l-1.640625 0z" fill-rule="nonzero"/><path fill="#000000" fill-opacity="0.0" d="m374.12335 138.28609l0 42.61418l-36.0 0l0 -42.61418z" fill-rule="evenodd"/><path fill="#000000" d="m349.20337 153.50572l1.875 0l0 1.875l-1.875 0l0 -1.875zm0 5.183304l1.875 0l0 1.875l-1.875 0l0 -1.875zm0 5.183304l1.875 0l0 1.875l-1.875 0l0 -1.875z" fill-rule="nonzero"/><path fill="#000000" fill-opacity="0.0" d="m543.83203 16.855738l0 0c0 -2.6150694 2.119934 -4.7350025 4.7349854 -4.7350025l146.84497 0c1.2557983 0 2.460144 0.49886513 3.3481445 1.3868504c0.8880005 0.8879852 1.3868408 2.092351 1.3868408 3.3481522l0 18.939444c0 2.6150703 -2.119934 4.7350006 -4.7349854 4.7350006l-146.84497 0c-2.6150513 0 -4.7349854 -2.1199303 -4.7349854 -4.7350006z" fill-rule="evenodd"/><path stroke="#000000" stroke-width="1.0" stroke-linejoin="round" stroke-linecap="butt" d="m543.83203 16.855738l0 0c0 -2.6150694 2.119934 -4.7350025 4.7349854 -4.7350025l146.84497 0c1.2557983 0 2.460144 0.49886513 3.3481445 1.3868504c0.8880005 0.8879852 1.3868408 2.092351 1.3868408 3.3481522l0 18.939444c0 2.6150703 -2.119934 4.7350006 -4.7349854 4.7350006l-146.84497 0c-2.6150513 0 -4.7349854 -2.1199303 -4.7349854 -4.7350006z" fill-rule="evenodd"/><path fill="#000000" d="m555.45325 21.776709l0 -1.890625l1.640625 0l0 1.890625l-1.640625 0zm0 11.468748l0 -9.671873l1.640625 0l0 9.671873l-1.640625 0zm9.863525 0l-1.640625 0l0 -10.453123q-0.59375 0.5625 -1.5625 1.140625q-0.953125 0.5625 -1.71875 0.84375l0 -1.59375q1.375 -0.640625 2.40625 -1.5625q1.03125 -0.921875 1.453125 -1.78125l1.0625 0l0 13.406248z" fill-rule="nonzero"/><path fill="#000000" fill-opacity="0.0" d="m543.83203 61.27831l0 0c0 -2.6150703 2.119934 -4.7350006 4.7349854 -4.7350006l146.84497 0c1.2557983 0 2.460144 0.49886322 3.3481445 1.3868484c0.8880005 0.8879852 1.3868408 2.0923538 1.3868408 3.3481522l0 18.939442c0 2.6150742 -2.119934 4.7350082 -4.7349854 4.7350082l-146.84497 0c-2.6150513 0 -4.7349854 -2.119934 -4.7349854 -4.7350082z" fill-rule="evenodd"/><path stroke="#000000" stroke-width="1.0" stroke-linejoin="round" stroke-linecap="butt" d="m543.83203 61.27831l0 0c0 -2.6150703 2.119934 -4.7350006 4.7349854 -4.7350006l146.84497 0c1.2557983 0 2.460144 0.49886322 3.3481445 1.3868484c0.8880005 0.8879852 1.3868408 2.0923538 1.3868408 3.3481522l0 18.939442c0 2.6150742 -2.119934 4.7350082 -4.7349854 4.7350082l-146.84497 0c-2.6150513 0 -4.7349854 -2.119934 -4.7349854 -4.7350082z" fill-rule="evenodd"/><path fill="#000000" d="m555.45325 66.19928l0 -1.890625l1.640625 0l0 1.890625l-1.640625 0zm0 11.46875l0 -9.671875l1.640625 0l0 9.671875l-1.640625 0zm12.301025 -1.578125l0 1.578125l-8.828125 0q-0.015625 -0.59375 0.1875 -1.140625q0.34375 -0.90625 1.078125 -1.78125q0.75 -0.875 2.15625 -2.015625q2.171875 -1.78125 2.9375 -2.828125q0.765625 -1.046875 0.765625 -1.96875q0 -0.984375 -0.703125 -1.640625q-0.6875 -0.671875 -1.8125 -0.671875q-1.1875 0 -1.90625 0.71875q-0.703125 0.703125 -0.703125 1.953125l-1.6875 -0.171875q0.171875 -1.890625 1.296875 -2.875q1.140625 -0.984375 3.03125 -0.984375q1.921875 0 3.046875 1.0625q1.125 1.0625 1.125 2.640625q0 0.796875 -0.328125 1.578125q-0.328125 0.78125 -1.09375 1.640625q-0.75 0.84375 -2.53125 2.34375q-1.46875 1.234375 -1.890625 1.6875q-0.421875 0.4375 -0.6875 0.875l6.546875 0z" fill-rule="nonzero"/><path fill="#000000" fill-opacity="0.0" d="m543.83203 105.70088l0 0c0 -2.6150665 2.119934 -4.7350006 4.7349854 -4.7350006l146.84497 0c1.2557983 0 2.460144 0.49886322 3.3481445 1.3868484c0.8880005 0.8879852 1.3868408 2.0923538 1.3868408 3.3481522l0 18.939445c0 2.6150665 -2.119934 4.7350082 -4.7349854 4.7350082l-146.84497 0c-2.6150513 0 -4.7349854 -2.1199417 -4.7349854 -4.7350082z" fill-rule="evenodd"/><path stroke="#000000" stroke-width="1.0" stroke-linejoin="round" stroke-linecap="butt" d="m543.83203 105.70088l0 0c0 -2.6150665 2.119934 -4.7350006 4.7349854 -4.7350006l146.84497 0c1.2557983 0 2.460144 0.49886322 3.3481445 1.3868484c0.8880005 0.8879852 1.3868408 2.0923538 1.3868408 3.3481522l0 18.939445c0 2.6150665 -2.119934 4.7350082 -4.7349854 4.7350082l-146.84497 0c-2.6150513 0 -4.7349854 -2.1199417 -4.7349854 -4.7350082z" fill-rule="evenodd"/><path fill="#000000" d="m555.45325 110.62185l0 -1.890625l1.640625 0l0 1.890625l-1.640625 0zm0 11.46875l0 -9.671875l1.640625 0l0 9.671875l-1.640625 0zm3.6916504 -3.53125l1.640625 -0.21875q0.28125 1.40625 0.953125 2.015625q0.6875 0.609375 1.65625 0.609375q1.15625 0 1.953125 -0.796875q0.796875 -0.796875 0.796875 -1.984375q0 -1.125 -0.734375 -1.859375q-0.734375 -0.734375 -1.875 -0.734375q-0.46875 0 -1.15625 0.171875l0.1875 -1.4375q0.15625 0.015625 0.265625 0.015625q1.046875 0 1.875 -0.546875q0.84375 -0.546875 0.84375 -1.671875q0 -0.90625 -0.609375 -1.5q-0.609375 -0.59375 -1.578125 -0.59375q-0.953125 0 -1.59375 0.609375q-0.640625 0.59375 -0.8125 1.796875l-1.640625 -0.296875q0.296875 -1.640625 1.359375 -2.546875q1.0625 -0.90625 2.65625 -0.90625q1.09375 0 2.0 0.46875q0.921875 0.46875 1.40625 1.28125q0.5 0.8125 0.5 1.71875q0 0.859375 -0.46875 1.578125q-0.46875 0.703125 -1.375 1.125q1.1875 0.28125 1.84375 1.140625q0.65625 0.859375 0.65625 2.15625q0 1.734375 -1.28125 2.953125q-1.265625 1.21875 -3.21875 1.21875q-1.765625 0 -2.921875 -1.046875q-1.15625 -1.046875 -1.328125 -2.71875z" fill-rule="nonzero"/><path fill="#000000" fill-opacity="0.0" d="m543.83203 194.54602l0 0c0 -2.6150665 2.119934 -4.7350006 4.7349854 -4.7350006l146.84497 0c1.2557983 0 2.460144 0.49887085 3.3481445 1.3868561c0.8880005 0.8879852 1.3868408 2.0923462 1.3868408 3.3481445l0 18.939453c0 2.6150665 -2.119934 4.7350006 -4.7349854 4.7350006l-146.84497 0c-2.6150513 0 -4.7349854 -2.119934 -4.7349854 -4.7350006z" fill-rule="evenodd"/><path stroke="#000000" stroke-width="1.0" stroke-linejoin="round" stroke-linecap="butt" d="m543.83203 194.54602l0 0c0 -2.6150665 2.119934 -4.7350006 4.7349854 -4.7350006l146.84497 0c1.2557983 0 2.460144 0.49887085 3.3481445 1.3868561c0.8880005 0.8879852 1.3868408 2.0923462 1.3868408 3.3481445l0 18.939453c0 2.6150665 -2.119934 4.7350006 -4.7349854 4.7350006l-146.84497 0c-2.6150513 0 -4.7349854 -2.119934 -4.7349854 -4.7350006z" fill-rule="evenodd"/><path fill="#000000" d="m555.45325 199.467l0 -1.890625l1.640625 0l0 1.890625l-1.640625 0zm0 11.46875l0 -9.671875l1.640625 0l0 9.671875l-1.640625 0zm4.1447754 3.703125l0 -13.375l1.484375 0l0 1.25q0.53125 -0.734375 1.1875 -1.09375q0.671875 -0.375 1.625 -0.375q1.234375 0 2.171875 0.640625q0.953125 0.625 1.4375 1.796875q0.484375 1.15625 0.484375 2.546875q0 1.484375 -0.53125 2.671875q-0.53125 1.1875 -1.546875 1.828125q-1.015625 0.625 -2.140625 0.625q-0.8125 0 -1.46875 -0.34375q-0.65625 -0.34375 -1.0625 -0.875l0 4.703125l-1.640625 0zm1.484375 -8.484375q0 1.859375 0.75 2.765625q0.765625 0.890625 1.828125 0.890625q1.09375 0 1.875 -0.921875q0.78125 -0.9375 0.78125 -2.875q0 -1.84375 -0.765625 -2.765625q-0.75 -0.921875 -1.8125 -0.921875q-1.046875 0 -1.859375 0.984375q-0.796875 0.96875 -0.796875 2.84375z" fill-rule="nonzero"/><path fill="#000000" fill-opacity="0.0" d="m639.9895 138.28609l0 42.61418l-36.0 0l0 -42.61418z" fill-rule="evenodd"/><path fill="#000000" d="m615.0695 153.50572l1.875 0l0 1.875l-1.875 0l0 -1.875zm0 5.183304l1.875 0l0 1.875l-1.875 0l0 -1.875zm0 5.183304l1.875 0l0 1.875l-1.875 0l0 -1.875z" fill-rule="nonzero"/><path fill="#000000" fill-opacity="0.0" d="m169.36745 26.262466l108.598434 0.062992096" fill-rule="evenodd"/><path stroke="#000000" stroke-width="1.0" stroke-linejoin="round" stroke-linecap="butt" d="m169.36745 26.262466l102.598434 0.059511185" fill-rule="evenodd"/><path fill="#000000" stroke="#000000" stroke-width="1.0" stroke-linecap="butt" d="m271.96494 27.973711l4.539032 -1.6490993l-4.53714 -1.6543655z" fill-rule="evenodd"/><path fill="#000000" fill-opacity="0.0" d="m168.4147 70.74803l109.543304 44.409447" fill-rule="evenodd"/><path stroke="#000000" stroke-width="1.0" stroke-linejoin="round" stroke-linecap="butt" d="m168.4147 70.74803l103.98288 42.155212" fill-rule="evenodd"/><path fill="#000000" stroke="#000000" stroke-width="1.0" stroke-linecap="butt" d="m271.777 114.433975l4.8262024 0.174263l-3.585083 -3.2357101z" fill-rule="evenodd"/><path fill="#000000" fill-opacity="0.0" d="m168.4147 204.01575l109.543304 -133.25984" fill-rule="evenodd"/><path stroke="#000000" stroke-width="1.0" stroke-linejoin="round" stroke-linecap="butt" d="m168.4147 204.01575l105.733215 -128.62485" fill-rule="evenodd"/><path fill="#000000" stroke="#000000" stroke-width="1.0" stroke-linecap="butt" d="m275.42386 76.43977l1.6058044 -4.55455l-4.157715 2.4568024z" fill-rule="evenodd"/><path fill="#000000" fill-opacity="0.0" d="m168.4147 115.1706l109.543304 88.850395" fill-rule="evenodd"/><path stroke="#000000" stroke-width="1.0" stroke-linejoin="round" stroke-linecap="butt" d="m168.4147 115.1706l104.88342 85.07076" fill-rule="evenodd"/><path fill="#000000" stroke="#000000" stroke-width="1.0" stroke-linecap="butt" d="m272.25763 201.52419l4.5650024 1.5759125l-2.4840088 -4.1415253z" fill-rule="evenodd"/><path fill="#000000" fill-opacity="0.0" d="m168.4147 115.1706l109.543304 0" fill-rule="evenodd"/><path stroke="#000000" stroke-width="1.0" stroke-linejoin="round" stroke-linecap="butt" d="m168.4147 115.1706l103.543304 0" fill-rule="evenodd"/><path fill="#000000" stroke="#000000" stroke-width="1.0" stroke-linecap="butt" d="m271.958 116.822334l4.538086 -1.6517334l-4.538086 -1.6517334z" fill-rule="evenodd"/><path fill="#000000" fill-opacity="0.0" d="m434.28085 26.325459l109.543304 0" fill-rule="evenodd"/><path stroke="#000000" stroke-width="1.0" stroke-linejoin="round" stroke-linecap="butt" d="m434.28085 26.325459l103.543304 0" fill-rule="evenodd"/><path fill="#000000" stroke="#000000" stroke-width="1.0" stroke-linecap="butt" d="m537.82416 27.977192l4.538086 -1.6517334l-4.538086 -1.6517315z" fill-rule="evenodd"/><path fill="#000000" fill-opacity="0.0" d="m434.28085 70.74803l109.543304 0" fill-rule="evenodd"/><path stroke="#000000" stroke-width="1.0" stroke-linejoin="round" stroke-linecap="butt" d="m434.28085 70.74803l103.543304 0" fill-rule="evenodd"/><path fill="#000000" stroke="#000000" stroke-width="1.0" stroke-linecap="butt" d="m537.82416 72.399765l4.538086 -1.6517334l-4.538086 -1.6517334z" fill-rule="evenodd"/><path fill="#000000" fill-opacity="0.0" d="m434.28085 115.1706l105.51181 42.77166" fill-rule="evenodd"/><path stroke="#000000" stroke-width="1.0" stroke-linejoin="round" stroke-linecap="butt" d="m434.28085 115.1706l99.951324 40.51757" fill-rule="evenodd"/><path fill="#000000" stroke="#000000" stroke-width="1.0" stroke-linecap="butt" d="m533.61163 157.21892l4.826172 0.1741333l-3.585144 -3.235611z" fill-rule="evenodd"/><path fill="#000000" fill-opacity="0.0" d="m434.28085 204.01575l109.543304 0" fill-rule="evenodd"/><path stroke="#000000" stroke-width="1.0" stroke-linejoin="round" stroke-linecap="butt" d="m434.28085 204.01575l103.543304 0" fill-rule="evenodd"/><path fill="#000000" stroke="#000000" stroke-width="1.0" stroke-linecap="butt" d="m537.82416 205.66748l4.538086 -1.6517334l-4.538086 -1.6517334z" fill-rule="evenodd"/><path fill="#000000" fill-opacity="0.0" d="m434.28085 115.1706l109.543304 0" fill-rule="evenodd"/><path stroke="#000000" stroke-width="1.0" stroke-linejoin="round" stroke-linecap="butt" d="m434.28085 115.1706l103.543304 0" fill-rule="evenodd"/><path fill="#000000" stroke="#000000" stroke-width="1.0" stroke-linecap="butt" d="m537.82416 116.822334l4.538086 -1.6517334l-4.538086 -1.6517334z" fill-rule="evenodd"/></g></svg>
